{"title":"WWE.Superstars.2011.07.21.Webrip-S4A","uid":6557023,"size":488881543,"categoryP":"video","categoryS":"tv_shows","magnet":"?xt=urn:btih:87c6aefb0a2dabf299b1020b40a8b94f4243f853&amp;dn=WWE.Superstars.2011.07.21.Webrip-S4A&amp;tr=udp%3A%2F%2Ftracker.openbittorrent.com%3A80&amp;tr=udp%3A%2F%2Fopen.demonii.com%3A1337&amp;tr=udp%3A%2F%2Ftracker.coppersurfer.tk%3A6969&amp;tr=udp%3A%2F%2Fexodus.desync.com%3A6969","seeders":0,"leechers":1,"uploader":"scene4all","files":-1,"time":1311329543,"description":"--------------------------------------------------------------------------------\n                                                                                \n           SSSSSSSSSSSSSSS       444444444                 AAA                  \n         SS:::::::::::::::S     4::::::::4                A:::A                 \n        S:::::SSSSSS::::::S    4:::::::::4               A:::::A                \n        S:::::S     SSSSSSS   4::::44::::4              A:::::::A               \n        S:::::S              4::::4 4::::4             A:::::::::A              \n        S:::::S             4::::4  4::::4            A:::::A:::::A             \n         S::::SSSS         4::::4   4::::4           A:::::A A:::::A            \n          SS::::::SSSSS   4::::444444::::444        A:::::A   A:::::A           \n            SSS::::::::SS 4::::::::::::::::4       A:::::A     A:::::A          \n               SSSSSS::::S4444444444:::::444      A:::::AAAAAAAAA:::::A         \n                    S:::::S         4::::4       A:::::::::::::::::::::A        \n                    S:::::S         4::::4      A:::::AAAAAAAAAAAAA:::::A       \n        SSSSSSS     S:::::S         4::::4     A:::::A             A:::::A      \n        S::::::SSSSSS:::::S       44::::::44  A:::::A               A:::::A     \n        S:::::::::::::::SS        4::::::::4 A:::::A                 A:::::A    \n         SSSSSSSSSSSSSSS          4444444444AAAAAAA                   AAAAAAA   \n                                                                                \n                                                                                \n---------------------------------------------------------------------------------\n\n                      WWE.Superstars.2011.07.21.Webrip-S4A                       \n\n---------------------------------------------------------------------------------\n\nGeneral\nComplete name                    : WWE.Superstars.2011.07.21.Webrip-S4A.mp4\nFormat                           : MPEG-4\nFormat profile                   : Base Media\nCodec ID                         : isom\nFile size                        : 466 MiB\nDuration                         : 48mn 3s\nOverall bit rate                 : 1 356 Kbps\nWriting application              : Lavf52.91.0\n\nVideo\nID                               : 1\nFormat                           : MPEG-4 Visual\nFormat profile                   : Simple@L1\nFormat settings, BVOP            : No\nFormat settings, QPel            : No\nFormat settings, GMC             : No warppoints\nFormat settings, Matrix          : Default (H.263)\nCodec ID                         : 20\nDuration                         : 48mn 3s\nBit rate                         : 1 199 Kbps\nWidth                            : 640 pixels\nHeight                           : 360 pixels\nDisplay aspect ratio             : 16:9\nFrame rate mode                  : Constant\nFrame rate                       : 29.970 fps\nColor space                      : YUV\nChroma subsampling               : 4:2:0\nBit depth                        : 8 bits\nScan type                        : Progressive\nCompression mode                 : Lossy\nBits/(Pixel*Frame)               : 0.174\nStream size                      : 412 MiB (88%)\nWriting library                  : Lavc52.101.0\n\nAudio\nID                               : 2\nFormat                           : AAC\nFormat/Info                      : Advanced Audio Codec\nFormat profile                   : LC\nCodec ID                         : 40\nDuration                         : 48mn 3s\nBit rate mode                    : Variable\nBit rate                         : 152 Kbps\nChannel(s)                       : 2 channels\nChannel positions                : Front: L R\nSampling rate                    : 44.1 KHz\nCompression mode                 : Lossy\nStream size                      : 52.2 MiB (11%)\n\nScreenshots:\n &lt;a href=&quot;\nhttp://leetleech.org/images/67141256888066703036.png&quot; rel=&quot;nofollow&quot; target=&quot;_NEW&quot;&gt;\nhttp://leetleech.org/images/67141256888066703036.png&lt;/a&gt;\n &lt;a href=&quot;\nhttp://leetleech.org/images/79049806694240974986.png&quot; rel=&quot;nofollow&quot; target=&quot;_NEW&quot;&gt;\nhttp://leetleech.org/images/79049806694240974986.png&lt;/a&gt;\n &lt;a href=&quot;\nhttp://leetleech.org/images/44755901442347561426.png&quot; rel=&quot;nofollow&quot; target=&quot;_NEW&quot;&gt;\nhttp://leetleech.org/images/44755901442347561426.png&lt;/a&gt;\n\n---------------------------------------------------------------------------------","torrent":{"xt":"urn:btih:87c6aefb0a2dabf299b1020b40a8b94f4243f853","amp;dn":"WWE.Superstars.2011.07.21.Webrip-S4A","amp;tr":["udp%3A%2F%2Ftracker.openbittorrent.com%3A80","udp%3A%2F%2Fopen.demonii.com%3A1337","udp%3A%2F%2Ftracker.coppersurfer.tk%3A6969","udp%3A%2F%2Fexodus.desync.com%3A6969"],"infoHash":"87c6aefb0a2dabf299b1020b40a8b94f4243f853","infoHashBuffer":{"type":"Buffer","data":[135,198,174,251,10,45,171,242,153,177,2,11,64,168,185,79,66,67,248,83]},"announce":[],"urlList":[]}}